<?xml version="1.0" encoding="utf-8"?>
<svg version="1.1" id="Layer_1"
xmlns="http://www.w3.org/2000/svg"
xmlns:xlink="http://www.w3.org/1999/xlink"
width="500px" height="126px"
xml:space="preserve">
<g id="PathID_17" transform="matrix(1.33283, 0, 0, 1.33283, 229.7, 86.2)" opacity="1">
<path style="fill:#54AC4D;fill-opacity:1" d="M32.2 -11.3Q32.2 -7.4 30.5 -4.95Q28.5 -2.05 25.2 -0.55Q21.75 1 18.1 1Q1.95 0.9 1.55 -12.1L9.8 -12.1Q9.9 -8.95 12 -7.55Q14.1 -6.1 17.1 -6.1Q19.9 -6.1 21.9 -7.25Q23.9 -8.4 23.9 -10.2Q23.95 -13 18.65 -14.25Q9.2 -16.5 8 -17.1Q2.1 -19.9 2.15 -26.6Q2.2 -30 3.9 -32.65Q5.6 -35.3 9.05 -36.8Q12.35 -38.2 16.15 -38.2Q21.95 -38.2 25.35 -35.35Q30.8 -31.9 31.05 -25.4L22.85 -25.4Q22.6 -28.3 20.6 -29.65Q18.75 -30.85 16.15 -30.85Q13.85 -30.85 12.35 -30.1Q10.1 -28.9 10.1 -27.35Q10.1 -24.3 15.4 -23.05Q25.1 -20.75 26.15 -20.25Q32.2 -17.55 32.2 -11.3" />
</g>
<g id="PathID_18" transform="matrix(1.33283, 0, 0, 1.33283, 229.7, 86.2)" opacity="1">
</g>
<g id="PathID_19" transform="matrix(1.33283, 0, 0, 1.33283, 272.65, 86.2)" opacity="1">
<path style="fill:#54AC4D;fill-opacity:1" d="M20.2 -13.65Q20.2 -21.35 14.65 -21.35Q9.25 -21.35 9.25 -13.25Q9.25 -9.8 10.45 -7.95Q12.5 -6 14.7 -6Q16.9 -6 18.35 -7.8Q20.2 -9.95 20.2 -13.65M8.9 -24.35Q9.4 -24.1 9.4 -25.15L9.4 -25.4Q9.55 -25.85 9.9 -26.4Q11.2 -28.55 16.4 -28.55Q19.9 -28.55 22.95 -26.45Q25.95 -24.35 27.25 -21.15Q28.5 -17.95 28.5 -13.65Q28.5 -7.8 25.25 -3.65Q22.75 0.65 17 0.7L16.95 0.7Q12.25 0.7 9.6 -2.85L9.6 -3.5L8.9 -3.5Q9.15 -3.1 9.6 -2.85L9.6 9.3L1.55 9.3L1.55 -27.75L9.4 -27.75L9.4 -25.4Q8.65 -24.3 8.9 -24.35" />
</g>
<g id="PathID_20" transform="matrix(1.33283, 0, 0, 1.33283, 272.65, 86.2)" opacity="1">
</g>
<g id="PathID_21" transform="matrix(1.33283, 0, 0, 1.33283, 310.5, 86.2)" opacity="1">
<path style="fill:#54AC4D;fill-opacity:1" d="M21 -13.85Q21 -21.45 15.05 -21.45Q9.1 -21.45 9.1 -13.85Q9.1 -6.2 15.05 -6.2Q21 -6.2 21 -13.85M29.2 -13.85Q29.2 -7.25 25.4 -3.3Q21.55 0.7 15.05 0.7Q8.45 0.7 4.6 -3.3Q0.8 -7.35 0.8 -13.85Q0.8 -20.35 4.6 -24.4Q8.4 -28.45 15.05 -28.45Q21.7 -28.45 25.65 -23.75Q29.2 -20.3 29.2 -13.85" />
</g>
<g id="PathID_22" transform="matrix(1.33283, 0, 0, 1.33283, 310.5, 86.2)" opacity="1">
</g>
<g id="PathID_23" transform="matrix(1.33283, 0, 0, 1.33283, 349.6, 86.2)" opacity="1">
<path style="fill:#54AC4D;fill-opacity:1" d="M18.1 -20.15Q16.5 -20.3 15.65 -20.3Q9.7 -20.3 9.7 -14.4L9.7 0L1.6 0L1.6 -27.75L9.3 -27.75L9.3 -25.2Q9.3 -24.55 8.65 -24.55Q10.65 -26.65 11.95 -27.35Q13.7 -28.35 16.65 -28.35L18.1 -28.35L18.1 -20.15" />
</g>
<g id="PathID_24" transform="matrix(1.33283, 0, 0, 1.33283, 349.6, 86.2)" opacity="1">
</g>
<g id="PathID_25" transform="matrix(1.33283, 0, 0, 1.33283, 373.7, 86.2)" opacity="1">
<path style="fill:#54AC4D;fill-opacity:1" d="M24 -14.1Q24 -10.1 23.6 -8.35Q23 -4.35 20.8 -2.1Q18.1 1 12.7 1Q9.35 1 6.65 -0.4Q3.6 -2 2.4 -4.65Q1.25 -7.35 1.25 -10.5L1.25 -34.9L9.3 -34.9L9.3 -27.75L24 -27.75L24 -21.65L9.3 -21.65L9.3 -11.2Q9.3 -9.15 9.55 -8.2Q10.15 -6.15 12.8 -6.15Q14.3 -6.15 15 -6.75Q16.4 -8.4 16.4 -13.2L16.4 -18.55L24 -18.55L24 -14.1" />
</g>
<g id="PathID_26" transform="matrix(1.33283, 0, 0, 1.33283, 373.7, 86.2)" opacity="1">
</g>
<g id="PathID_27" transform="matrix(2.81069, 0, 0, 2.81069, 105, 62.85)" opacity="1">
<linearGradient
id="LinearGradID_2" gradientUnits="userSpaceOnUse" gradientTransform="matrix(-0.00236511, 0.0278931, -0.0441132, -0.00372314, -0.65, -1.2)" spreadMethod ="pad" x1="-819.2" y1="0" x2="819.2" y2="0" >
<stop  offset="0.321569" style="stop-color:#37A2D7;stop-opacity:1" />
<stop  offset="1" style="stop-color:#58AE3F;stop-opacity:1" />
</linearGradient>
<path style="fill:url(#LinearGradID_2) " d="M15.85 -20.6Q21.1 -24.4 28.45 -19.95L32.9 -20.45L37.4 -20.9L34.05 -17.55L30.7 -14.2Q32.35 -6.85 32.4 -3.15Q32.45 3.05 29.4 8.7Q25 16.7 16.25 20.35Q6.7 24.4 -2.75 20.3Q-7.7 18.15 -11.95 15.45L-18.55 10.9Q-26.4 5.5 -37.35 2.4Q-29.9 2.7 -25.2 3.7L-15.9 5.85Q-6.75 7.55 -0.25 4.25Q7.4 0.45 9.8 -9.8Q11.4 -17.35 15.85 -20.6" />
</g>
<g id="PathID_28" transform="matrix(2.81069, 0, 0, 2.81069, 105, 62.85)" opacity="1">
</g>
<g id="PathID_29" transform="matrix(1.33283, 0, 0, 1.33283, 413, 85)" opacity="1">
<path style="fill:#37A2D7;fill-opacity:1" d="M31.55 -12.6Q31.55 -5.7 27.55 -2.25Q23.75 1 16.8 1Q7.9 0.95 3.95 -4.5Q1.85 -7.4 1.85 -12.2L1.85 -36.8L9.65 -36.8L9.65 -12.9Q9.65 -9.6 11.3 -7.6Q13.05 -5.45 16.3 -5.45Q23.65 -5.45 23.65 -12.6L23.65 -36.8L31.55 -36.8L31.55 -12.6" />
</g>
<g id="PathID_30" transform="matrix(1.33283, 0, 0, 1.33283, 413, 85)" opacity="1">
</g>
<g id="PathID_31" transform="matrix(1.33283, 0, 0, 1.33283, 456.7, 85)" opacity="1">
<path style="fill:#37A2D7;fill-opacity:1" d="M20.6 -13.4Q20.6 -21.8 14.4 -21.8Q8.4 -21.8 8.4 -13Q8.4 -9.3 10.3 -7.1Q12 -5.1 14.45 -5.1Q17 -5.1 18.65 -7.15Q20.6 -9.45 20.6 -13.4M28.05 -13.4Q28.05 -7.55 25.45 -3.7Q22.4 0.65 16.85 0.7L16.8 0.7Q11.75 0.7 8.85 -3.55L8.75 -3.55L8.75 9.5L1.6 9.5L1.6 -27.3L8.55 -27.3L8.55 -25.15L8.6 -23.85L9.9 -26Q11.2 -28.1 16.2 -28.1Q19.65 -28.1 22.6 -26.05Q25.55 -24 26.8 -20.85Q28.05 -17.7 28.05 -13.4" />
</g>
<g id="PathID_32" transform="matrix(1.33283, 0, 0, 1.33283, 456.7, 85)" opacity="1">
</g>
</svg>
