<svg id="Capa_1" enable-background="new 0 0 511.563 511.563" height="512" viewBox="0 0 511.563 511.563" width="512" xmlns="http://www.w3.org/2000/svg"><g><g><g><path d="m488.59 353.01c8.545 0 15.473-6.927 15.473-15.473v-314.377c0-8.545-6.927-15.473-15.473-15.473h-465.617c-8.546 0-15.473 6.927-15.473 15.473v314.378c0 8.545 6.927 15.473 15.473 15.473h465.617z" fill="#fd8087"/><path d="m139.239 310.597c-42.124 0-76.272-34.148-76.272-76.272v-226.638h-39.994c-8.546 0-15.473 6.927-15.473 15.473v314.378c0 8.545 6.927 15.473 15.473 15.473h465.617c8.545 0 15.473-6.927 15.473-15.473v-26.941z" fill="#fe646f"/><path d="m474.063 316.932v-273.167c0-3.357-2.721-6.078-6.078-6.078h-424.407c-3.357 0-6.078 2.721-6.078 6.078v273.168c0 3.357 2.721 6.078 6.078 6.078h424.407c3.356-.001 6.078-2.722 6.078-6.079z" fill="#f9f7f8"/><path d="m139.239 310.597c-42.124 0-76.271-34.148-76.271-76.272v-196.638h-19.39c-3.357 0-6.078 2.721-6.078 6.078v273.168c0 3.357 2.721 6.078 6.078 6.078h424.407c3.357 0 6.078-2.721 6.078-6.078v-6.336z" fill="#efedef"/></g><path d="m394.659 283.703h-277.755c-5.99 0-10.845-4.856-10.845-10.845v-16.892c0-5.99 4.856-10.845 10.845-10.845h277.755c5.99 0 10.845 4.856 10.845 10.845v16.892c0 5.989-4.856 10.845-10.845 10.845z" fill="#fd8087"/></g><g><path d="m129.125 345.511h-106.152c-4.396 0-7.973-3.577-7.973-7.973v-37.854c0-4.142-3.358-7.5-7.5-7.5s-7.5 3.358-7.5 7.5v37.854c0 12.667 10.306 22.973 22.973 22.973h106.152c4.142 0 7.5-3.358 7.5-7.5s-3.358-7.5-7.5-7.5z"/><path d="m488.59.187h-465.617c-12.667 0-22.973 10.306-22.973 22.973v244.562c0 4.142 3.358 7.5 7.5 7.5s7.5-3.358 7.5-7.5v-244.562c0-4.396 3.577-7.973 7.973-7.973h465.617c4.396 0 7.973 3.577 7.973 7.973v314.378c0 4.396-3.577 7.973-7.973 7.973h-104.152c-4.142 0-7.5 3.358-7.5 7.5s3.358 7.5 7.5 7.5h104.152c12.667 0 22.973-10.306 22.973-22.973v-314.378c0-12.667-10.306-22.973-22.973-22.973z"/><path d="m409.016 30.187h-371.516c-4.142 0-7.5 3.358-7.5 7.5v285.323c0 4.142 3.358 7.5 7.5 7.5h86.108c4.142 0 7.5-3.358 7.5-7.5s-3.358-7.5-7.5-7.5h-78.608v-270.323h364.016c4.142 0 7.5-3.358 7.5-7.5s-3.358-7.5-7.5-7.5z"/><path d="m389.954 315.51c-4.142 0-7.5 3.358-7.5 7.5s3.358 7.5 7.5 7.5h84.108c4.142 0 7.5-3.358 7.5-7.5v-285.323c0-4.142-3.358-7.5-7.5-7.5h-33.084c-4.142 0-7.5 3.358-7.5 7.5s3.358 7.5 7.5 7.5h25.584v270.323z"/><path d="m394.659 291.203c10.116 0 18.345-8.229 18.345-18.345v-16.892c0-10.116-8.229-18.345-18.345-18.345h-23.955c-4.142 0-7.5 3.358-7.5 7.5s3.358 7.5 7.5 7.5h23.955c1.845 0 3.345 1.5 3.345 3.345v16.892c0 1.845-1.5 3.345-3.345 3.345h-277.755c-1.845 0-3.345-1.5-3.345-3.345v-16.892c0-1.845 1.5-3.345 3.345-3.345h221.838c4.142 0 7.5-3.358 7.5-7.5s-3.358-7.5-7.5-7.5h-221.838c-10.116 0-18.345 8.229-18.345 18.345v16.892c0 10.116 8.229 18.345 18.345 18.345h9.663l21.742 26.41 18.07 186.983c.398 4.123 4.062 7.139 8.187 6.744 4.123-.398 7.142-4.064 6.744-8.187l-2.55-26.384c2.192-1.968 4.369-3.948 6.531-5.942 8.963 13.084 18.233 25.844 28.038 36.897 1.763 1.989 4.299 3.2 6.957 3.322.15.007.3.011.451.011 2.511 0 4.971-.966 6.806-2.687l1.388-1.3c9.622-9.057 18.914-18.42 27.896-28.101 9.377 10.124 19.097 19.916 29.182 29.391 1.835 1.724 4.297 2.693 6.812 2.693.136 0 .272-.003.409-.009 2.655-.111 5.197-1.307 6.974-3.282l3.211-3.569c8.734-9.815 17.024-21.325 25.049-33.191 2.1 1.934 4.213 3.856 6.341 5.766l-2.55 26.384c-.398 4.123 2.621 7.789 6.744 8.187.246.023.489.035.73.035 3.817 0 7.082-2.901 7.457-6.779l18.07-186.983 21.742-26.41h7.661zm-92.439 132.446c6.657-9.18 13.107-18.616 19.362-28.311 6.232 6.861 12.622 13.58 19.141 20.175l-1.125 11.643c-4.06 5.919-8.143 12.127-12.447 18.683-.438.668-.878 1.338-1.318 2.007-8.095-7.874-15.969-15.939-23.613-24.197zm-114.387 24.115c-.712-1.066-1.422-2.131-2.131-3.194-4.058-6.086-7.909-11.852-11.738-17.421l-1.124-11.636c6.53-6.605 12.929-13.336 19.171-20.208 6.256 9.682 12.715 19.11 19.384 28.295-7.63 8.244-15.484 16.302-23.562 24.164zm25.226-156.561h31.185c1.219 2.031 2.438 4.063 3.678 6.08-6.306 9.933-12.882 19.689-19.719 29.258-6.309-10.157-12.347-20.507-18.107-31.045.997-1.426 1.978-2.861 2.963-4.293zm43.722 20.075c6.373 9.805 12.997 19.444 19.879 28.893-6.372 9.705-12.999 19.224-19.877 28.553-6.879-9.33-13.503-18.855-19.875-28.561 6.88-9.446 13.502-19.082 19.873-28.885zm-38.121 28.292c-7.888 10.476-16.101 20.706-24.614 30.683-6.032-9.999-11.861-20.27-17.498-30.818 8.237-9.905 16.201-20.082 23.857-30.466 5.823 10.383 11.907 20.586 18.255 30.601zm-51.87 13.345c5.457 9.969 11.086 19.695 16.9 29.179-4.18 4.663-8.43 9.265-12.746 13.806zm35.553 30.713c8.643-9.98 16.984-20.217 25.012-30.697 6.418 9.602 13.091 19.018 19.998 28.255-8.227 10.605-16.784 20.954-25.673 31.032-6.659-9.272-13.101-18.799-19.337-28.59zm54.438 9.86c8.354 10.636 17.034 21.019 26.044 31.132-8.341 11.02-17 21.656-25.993 31.929-9.017-10.308-17.694-20.963-26.045-31.986 8.992-10.095 17.656-20.459 25.994-31.075zm9.431-12.305c6.906-9.236 13.578-18.651 19.996-28.252 8.036 10.491 16.388 20.739 25.041 30.73-6.234 9.804-12.669 19.335-19.314 28.601-8.905-10.095-17.482-20.456-25.723-31.079zm63.673.936c5.803-9.482 11.429-19.208 16.886-29.188l-4.154 42.98c-4.311-4.536-8.556-9.133-12.732-13.792zm-10.347-11.844c-8.52-9.984-16.74-20.221-24.635-30.706 6.348-10.015 12.432-20.218 18.254-30.601 7.658 10.386 15.623 20.566 23.862 30.473-5.638 10.562-11.461 20.838-17.481 30.834zm-34.18-43.735c-6.836-9.568-13.411-19.325-19.717-29.257 1.24-2.018 2.459-4.048 3.678-6.079h31.185c.984 1.431 1.964 2.865 2.96 4.289-5.761 10.537-11.797 20.889-18.106 31.047zm-139.362-35.337h44.804c.553 1.06 1.101 2.122 1.659 3.178-7.505 10.414-15.331 20.627-23.442 30.577-2.267-4.482-4.501-9.013-6.703-13.594-.087-.18-.185-.351-.284-.521-.021-.036-.038-.073-.059-.109-.175-.29-.37-.56-.577-.818-.018-.022-.031-.047-.049-.069zm75.126 202.604c-8.52-10.094-16.754-21.615-24.784-33.401 8.284-7.996 16.346-16.187 24.173-24.573 8.414 11.001 17.149 21.646 26.221 31.952-8.264 8.95-16.792 17.623-25.61 26.022zm71.401.061c-8.816-8.432-17.341-17.124-25.597-26.079 9.05-10.275 17.772-20.9 26.177-31.9 7.866 8.426 15.969 16.654 24.297 24.686-8.069 12.013-16.346 23.655-24.877 33.293zm59.695-184.021c-.058.07-.102.15-.157.222-.103.134-.199.273-.293.416-.136.205-.259.416-.374.633-.045.085-.104.159-.146.247-2.205 4.587-4.441 9.123-6.708 13.608-8.112-9.952-15.933-20.173-23.439-30.588.559-1.057 1.108-2.121 1.661-3.182h44.804z"/><path d="m366.18 222.621c4.142 0 7.5-3.358 7.5-7.5v-86.968c0-9.568-7.784-17.353-17.353-17.353h-201.092c-9.568 0-17.353 7.784-17.353 17.353v86.968c0 4.142 3.358 7.5 7.5 7.5s7.5-3.358 7.5-7.5v-86.968c0-1.297 1.055-2.353 2.353-2.353h201.092c1.297 0 2.353 1.055 2.353 2.353v86.968c0 4.142 3.358 7.5 7.5 7.5z"/></g></g></svg>