<svg id="Capa_1" enable-background="new 0 0 505 505" height="512" viewBox="0 0 505 505" width="512" xmlns="http://www.w3.org/2000/svg"><g><g><g><path d="m497.5 65.493v312.33h-25v-312.33c0-17.46-14.21-31.67-31.67-31.67h-376.67c-17.46 0-31.66 14.21-31.66 31.67v312.33h-25v-312.33c0-31.3 25.37-56.67 56.66-56.67h376.67c31.3 0 56.67 25.37 56.67 56.67z" fill="#5b5c60"/></g><circle cx="252.5" cy="375.066" fill="#e7e8ed" r="121.111"/><path d="m181.389 375.066c0-58.316 41.219-107.001 96.111-118.521-8.068-1.693-16.429-2.589-25-2.589-66.888 0-121.111 54.223-121.111 121.111s54.224 121.11 121.111 121.11c8.571 0 16.932-.896 25-2.59-54.892-11.52-96.111-60.204-96.111-118.521z" fill="#b7bcc9"/><g><g id="XMLID_1_"><g><path d="m203.842 438.993 15.46 52.57c-29.85-8.48-54.99-28.13-70.64-54.13l.02-.01 55.11 1.57z" fill="#3e4a56"/><g fill="#526071"><path d="m299.412 440.283 54.78.59c-16.47 25.4-42.2 44.24-72.4 51.74l-.01-.03 17.61-52.25z"/><path d="m373.612 375.073c0 2.63-.08 5.24-.26 7.83l-44.42-32.66-.04-.03 17.21-52c17.19 20.911 27.51 47.68 27.51 76.86z"/><path d="m298.873 263.159-.01.03-45.23 31.52-.04.03-22.81-17.26-20.89-15.8c13.25-5 27.61-7.72 42.61-7.72 8.57 0 16.92.89 24.98 2.59 7.4 1.54 14.56 3.77 21.39 6.61z"/><path d="m252.522 326.273 45.72 33.22-17.47 53.78h-56.54l-17.47-53.78 45.74-33.23z"/></g><path d="m176.792 348.103.02.05-45.36 30.69c-.04-1.25-.06-2.51-.06-3.77 0-30.63 11.37-58.62 30.14-79.95z" fill="#3e4a56"/></g></g></g><path d="m277.483 256.549c-17.19 3.62-33.04 10.87-46.7 20.93l-20.89-15.8c13.25-5 27.61-7.72 42.61-7.72 8.57 0 16.92.89 24.98 2.59z" fill="#3e4a56"/></g><g><path d="m440.83 1.323h-290.231c-4.142 0-7.5 3.358-7.5 7.5s3.358 7.5 7.5 7.5h290.231c27.112 0 49.17 22.058 49.17 49.17v304.83h-10v-189.154c0-4.142-3.358-7.5-7.5-7.5s-7.5 3.358-7.5 7.5v196.654c0 4.142 3.358 7.5 7.5 7.5h25c4.142 0 7.5-3.358 7.5-7.5v-312.33c0-35.383-28.787-64.17-64.17-64.17z"/><path d="m440.83 41.323c13.327 0 24.17 10.843 24.17 24.17v90.674c0 4.142 3.358 7.5 7.5 7.5s7.5-3.358 7.5-7.5v-90.674c0-21.599-17.572-39.17-39.17-39.17h-376.67c-21.593 0-39.16 17.572-39.16 39.17v304.83h-10v-304.83c0-27.113 22.053-49.17 49.16-49.17h61.437c4.142 0 7.5-3.358 7.5-7.5s-3.358-7.5-7.5-7.5h-61.437c-35.378 0-64.16 28.787-64.16 64.17v312.33c0 4.142 3.358 7.5 7.5 7.5h25c4.142 0 7.5-3.358 7.5-7.5v-312.33c0-13.328 10.838-24.17 24.16-24.17h62.9v27.595c0 17.542-14.271 31.813-31.813 31.813s-31.813-14.271-31.813-31.813c0-4.142-3.358-7.5-7.5-7.5s-7.5 3.358-7.5 7.5c0 25.813 21 46.813 46.813 46.813 12.274 0 23.456-4.752 31.813-12.508v27.986c0 17.542-14.271 31.813-31.813 31.813s-31.813-14.271-31.813-31.813c0-4.142-3.358-7.5-7.5-7.5s-7.5 3.358-7.5 7.5c0 25.813 21 46.813 46.813 46.813 12.274 0 23.456-4.752 31.813-12.508v27.985c0 17.542-14.271 31.813-31.813 31.813s-31.813-14.271-31.813-31.813c0-4.142-3.358-7.5-7.5-7.5s-7.5 3.358-7.5 7.5c0 25.813 21 46.813 46.813 46.813 12.274 0 23.456-4.752 31.813-12.508v27.986c0 17.542-14.271 31.813-31.813 31.813s-31.813-14.271-31.813-31.813c0-4.142-3.358-7.5-7.5-7.5s-7.5 3.358-7.5 7.5c0 25.813 21 46.813 46.813 46.813 12.386 0 23.655-4.844 32.037-12.726.803 3.277 3.752 5.712 7.276 5.712 4.142 0 7.5-3.358 7.5-7.5v-60.285c8.357 7.756 19.539 12.508 31.813 12.508s23.456-4.752 31.813-12.508v3.951c0 4.142 3.358 7.5 7.5 7.5s7.5-3.358 7.5-7.5v-3.951c8.357 7.756 19.539 12.508 31.813 12.508s23.456-4.752 31.813-12.508v3.951c0 4.142 3.358 7.5 7.5 7.5s7.5-3.358 7.5-7.5v-3.951c8.357 7.756 19.539 12.508 31.813 12.508s23.456-4.752 31.813-12.508v60.285c0 4.142 3.358 7.5 7.5 7.5 3.525 0 6.473-2.435 7.276-5.712 8.381 7.882 19.651 12.726 32.037 12.726 25.813 0 46.813-21 46.813-46.813 0-4.142-3.358-7.5-7.5-7.5s-7.5 3.358-7.5 7.5c0 17.542-14.271 31.813-31.813 31.813s-31.813-14.271-31.813-31.813v-27.986c8.357 7.756 19.539 12.508 31.813 12.508 25.813 0 46.813-21 46.813-46.813 0-4.142-3.358-7.5-7.5-7.5s-7.5 3.358-7.5 7.5c0 17.542-14.271 31.813-31.813 31.813s-31.813-14.271-31.813-31.813v-27.985c8.357 7.756 19.539 12.508 31.813 12.508 25.813 0 46.813-21 46.813-46.813 0-4.142-3.358-7.5-7.5-7.5s-7.5 3.358-7.5 7.5c0 17.542-14.271 31.813-31.813 31.813s-31.813-14.271-31.813-31.813v-27.986c8.357 7.756 19.539 12.508 31.813 12.508 25.813 0 46.813-21 46.813-46.813 0-4.142-3.358-7.5-7.5-7.5s-7.5 3.358-7.5 7.5c0 17.542-14.271 31.813-31.813 31.813s-31.813-14.271-31.813-31.813v-27.595zm-77.89 89.886c0 17.542-14.271 31.813-31.813 31.813s-31.813-14.271-31.813-31.813v-27.986c8.357 7.756 19.539 12.508 31.813 12.508s23.456-4.752 31.813-12.508zm-220.88-27.986c8.357 7.756 19.539 12.508 31.813 12.508s23.456-4.752 31.813-12.508v27.986c0 17.542-14.271 31.813-31.813 31.813s-31.813-14.271-31.813-31.813zm78.627 0c8.357 7.756 19.539 12.508 31.813 12.508s23.456-4.752 31.813-12.508v27.986c0 17.542-14.271 31.813-31.813 31.813s-31.813-14.271-31.813-31.813zm63.626-34.305c0 17.542-14.271 31.813-31.813 31.813s-31.813-14.271-31.813-31.813v-27.595h63.626zm-78.626-27.595v27.595c0 17.542-14.271 31.813-31.813 31.813s-31.814-14.271-31.814-31.813v-27.595zm-31.813 183.99c-17.542 0-31.813-14.271-31.813-31.813v-27.986c8.357 7.756 19.539 12.508 31.813 12.508s23.456-4.752 31.813-12.508v27.986c0 17.541-14.271 31.813-31.813 31.813zm78.626 0c-17.542 0-31.813-14.271-31.813-31.813v-27.985c8.357 7.756 19.539 12.508 31.813 12.508s23.456-4.752 31.813-12.508v27.986c0 17.54-14.271 31.812-31.813 31.812zm78.627 0c-17.542 0-31.813-14.271-31.813-31.813v-27.986c8.357 7.756 19.539 12.508 31.813 12.508s23.456-4.752 31.813-12.508v27.986c0 17.541-14.271 31.813-31.813 31.813zm31.813-156.395c0 17.542-14.271 31.813-31.813 31.813s-31.813-14.271-31.813-31.813v-27.595h63.627v27.595z"/><path d="m109.113 346.725c-4.33 2.106-8.997 3.174-13.87 3.174-17.54 0-31.81-14.274-31.81-31.82 0-4.142-3.358-7.5-7.5-7.5s-7.5 3.358-7.5 7.5c0 25.817 20.999 46.82 46.81 46.82 7.166 0 14.04-1.577 20.431-4.686 3.725-1.812 5.275-6.3 3.463-10.025s-6.301-5.275-10.024-3.463z"/><path d="m449.063 310.579c-4.142 0-7.5 3.358-7.5 7.5 0 17.546-14.27 31.82-31.81 31.82-4.873 0-9.54-1.068-13.869-3.174-3.726-1.813-8.213-.262-10.025 3.463s-.262 8.213 3.463 10.025c6.391 3.109 13.265 4.686 20.431 4.686 25.811 0 46.81-21.003 46.81-46.82 0-4.142-3.357-7.5-7.5-7.5z"/><path d="m252.5 246.455c-70.917 0-128.611 57.695-128.611 128.611s57.694 128.611 128.611 128.611 128.611-57.695 128.611-128.611-57.694-128.611-128.611-128.611zm50.879 186.369-14.321-20.795 15.107-46.494 23.308-7.06 38.068 27.99c-1.701 16.993-7.165 32.892-15.539 46.855zm-103.078-1.441-47.196-1.344c-7.888-14.206-12.817-30.268-13.955-47.354l38.641-26.147 22.946 8.694 15.126 46.553zm-32.205-86.395-28.703 19.423c1.822-19.499 8.587-37.583 19.035-52.979zm47.48 17.37 36.924-26.827 36.925 26.827-14.104 43.408h-45.641zm122.148-14.964 10.875-32.86c9.92 15.692 16.102 33.968 17.293 53.571zm-.09-47.469-14.64 44.235-23.359 7.076-39.488-28.689.81-23.8 38.752-27.006c14.548 6.672 27.451 16.33 37.925 28.184zm-55.168-34.451-28.695 19.998-27.646-20.919c8.468-2.021 17.297-3.098 26.375-3.098 10.369 0 20.415 1.405 29.966 4.019zm-73.711 4.745 37.207 28.153-.815 23.96-39.518 28.712-22.65-8.581-13.061-45.335c10.845-11.485 24.052-20.717 38.837-26.909zm-45.466 175.116 34.893.993 9.774 33.247c-17.612-7.535-32.95-19.395-44.667-34.24zm62.007 40.042-13.162-44.773 15.753-19.838h48.975l14.241 20.678-15.09 44.78c-7.589 1.603-15.453 2.453-23.512 2.453-9.375 0-18.485-1.149-27.205-3.3zm68.313-4.4 11.167-33.137 34.584.368c-12.174 14.434-27.868 25.804-45.751 32.769z"/></g></g></svg>