<svg id="Capa_1" enable-background="new 0 0 511.99 511.99" height="512" viewBox="0 0 511.99 511.99" width="512" xmlns="http://www.w3.org/2000/svg"><g><g><ellipse cx="256" cy="397.757" fill="#b3e59f" rx="248.498" ry="101.655"/><path d="m127.73 360.31c-40.073 4.561-69.48 19.594-69.48 37.442 0 17.858 29.407 32.891 69.48 37.452 8.126.924 16.679 1.422 25.527 1.422 8.847 0 17.4-.498 25.527-1.422 40.083-4.561 69.49-19.594 69.49-37.452 0-17.847-29.407-32.881-69.49-37.442" fill="#2b4d66"/><path d="m350.664 123.673c-51.795 42.013-99.242 63.822-131.107 74.884-25.303 8.797-40.774 10.818-40.774 10.818l-27.883-66.372 27.883-105.032s7.75 1.016 21.25 4.723c29.58 8.127 86.809 29.204 150.631 80.979z" fill="#dd636e"/><path d="m219.557 198.556c-25.303 8.797-40.774 10.818-40.774 10.818l-27.883-66.371 27.883-105.032s7.75 1.016 21.25 4.723c.153 53.735 1.92 116.054 19.524 155.862z" fill="#da4a54"/><path d="m178.783 12.576v422.627c-8.126.924-16.679 1.422-25.527 1.422-.792 0-1.574 0-2.357-.01-8.014-.081-15.765-.569-23.17-1.412v-422.627z" fill="#ecc373"/><path d="m150.9 12.576v424.039c-8.014-.081-15.765-.569-23.17-1.412v-422.627z" fill="#dab46b"/><g><circle cx="387.886" cy="291.271" fill="#f1f1f4" r="50.744"/><path d="m401.42 340.201c-4.307 1.178-8.847 1.818-13.54 1.818-28.025 0-50.738-22.723-50.738-50.749s22.713-50.738 50.738-50.738c4.693 0 9.234.64 13.54 1.818-21.453 5.922-37.218 25.577-37.218 48.92s15.765 42.999 37.218 48.931z" fill="#dddaec"/></g></g><g><path d="m438.242 320.483c5.005-8.594 7.888-18.57 7.888-29.212 0-32.116-26.128-58.244-58.244-58.244s-58.245 26.128-58.245 58.244c0 .611.027 1.214.046 1.821-23.82-2.978-48.557-4.489-73.684-4.489-23.712 0-47.119 1.352-69.72 4.007v-76.92c21.058-4.154 89.782-21.849 169.102-86.191 1.756-1.424 2.775-3.564 2.775-5.824s-1.02-4.4-2.775-5.824c-30.475-24.725-62.669-45.151-95.688-60.71-3.748-1.766-8.215-.159-9.981 3.587-1.766 3.747-.159 8.216 3.588 9.981 29.303 13.808 57.964 31.604 85.314 52.964-69.679 54.38-130.614 71.819-152.334 76.636v-153.29c8.285 1.817 22.242 5.447 40.114 12.236.876.333 1.776.491 2.662.491 3.024 0 5.875-1.843 7.013-4.839 1.471-3.872-.476-8.204-4.348-9.675-21.199-8.053-37.104-11.883-45.44-13.553v-19.103c0-4.142-3.358-7.5-7.5-7.5h-51.055c-4.142 0-7.5 3.358-7.5 7.5v292.27c-75.413 19.741-120.23 54.257-120.23 92.908 0 30.399 27.504 58.393 77.445 78.824 47.818 19.562 111.229 30.336 178.555 30.336 70.137 0 135.396-11.552 183.754-32.529 3.8-1.648 5.544-6.065 3.896-9.865s-6.066-5.545-9.865-3.896c-45.843 19.885-110.643 31.29-177.785 31.29-65.423 0-126.818-10.377-172.875-29.219-43.294-17.712-68.125-41.382-68.125-64.941 0-30.36 40.056-59.622 105.23-77.384v33.356c-42.435 6.138-69.48 23.093-69.48 44.025 0 22.014 29.884 39.64 76.132 44.904 8.574.976 17.448 1.47 26.374 1.47s17.8-.495 26.375-1.47c46.255-5.263 76.142-22.889 76.142-44.904 0-20.933-27.049-37.889-69.49-44.026v-46.002c22.562-2.726 45.976-4.122 69.72-4.122 26.078 0 51.696 1.684 76.26 4.966 7.385 23.696 29.527 40.947 55.623 40.947 15.891 0 30.309-6.403 40.828-16.757 43.466 17.746 68.277 41.287 68.277 64.996 0 21.845-20.438 39.063-37.583 49.66-3.523 2.178-4.614 6.799-2.437 10.323 1.418 2.295 3.874 3.558 6.387 3.558 1.345 0 2.708-.362 3.936-1.121 29.241-18.073 44.697-39.657 44.697-62.42-.001-29.752-26.102-56.987-73.749-77.27zm-372.492 77.269c0-5.549 5.733-11.774 15.729-17.078 9.91-5.259 23.459-9.35 38.751-11.771v57.708c-15.293-2.421-28.842-6.512-38.751-11.772-9.996-5.305-15.729-11.533-15.729-17.087zm69.48 30.639v-408.315h36.053v408.314c-11.858.962-24.197.962-36.053.001zm89.814-47.717c9.996 5.304 15.729 11.529 15.729 17.078 0 5.554-5.733 11.782-15.729 17.087-9.911 5.26-23.463 9.351-38.76 11.772v-57.709c15.296 2.421 28.848 6.512 38.76 11.772zm162.842-46.159c-23.845 0-43.245-19.399-43.245-43.244s19.399-43.244 43.245-43.244c23.845 0 43.244 19.399 43.244 43.244s-19.4 43.244-43.244 43.244z"/><path d="m289.416 312.317c-.327.109-8.091 2.737-15.794 8.789-3.517 2.763-6.49 5.803-8.898 9.079-2.408-3.275-5.381-6.316-8.898-9.079-7.703-6.052-15.467-8.68-15.794-8.789-3.928-1.309-8.177.814-9.487 4.744-1.31 3.929.814 8.177 4.744 9.487.219.073 21.936 7.53 21.936 26.392 0 4.142 3.358 7.5 7.5 7.5s7.5-3.358 7.5-7.5c0-18.663 21.035-26.084 21.96-26.401 3.914-1.32 6.026-5.557 4.719-9.479-1.312-3.929-5.559-6.052-9.488-4.743z"/><path d="m375.356 421.079c-.327.109-8.091 2.737-15.794 8.789-3.517 2.763-6.49 5.803-8.898 9.079-2.408-3.276-5.381-6.316-8.898-9.079-7.703-6.052-15.467-8.68-15.794-8.789-3.93-1.31-8.176.814-9.487 4.743-1.31 3.93.814 8.177 4.744 9.487.219.073 21.935 7.53 21.935 26.392 0 4.142 3.358 7.5 7.5 7.5s7.5-3.358 7.5-7.5c0-18.635 20.973-26.062 21.957-26.399 3.916-1.318 6.03-5.557 4.723-9.48-1.311-3.929-5.559-6.053-9.488-4.743z"/><path d="m402.381 431.264c0 4.142 3.358 7.5 7.5 7.5s7.5-3.358 7.5-7.5c0-18.662 21.035-26.084 21.96-26.401 3.914-1.32 6.026-5.557 4.719-9.479-1.31-3.93-5.559-6.053-9.487-4.743-.327.109-8.091 2.737-15.794 8.789-3.517 2.763-6.49 5.803-8.898 9.079-2.408-3.276-5.381-6.316-8.898-9.079-7.703-6.052-15.467-8.68-15.794-8.789-3.917-1.306-8.142.807-9.463 4.721s.785 8.164 4.693 9.5c.896.307 21.962 7.726 21.962 26.402z"/><path d="m411.816 302.296h-.508c-4.142 0-7.5 3.358-7.5 7.5s3.358 7.5 7.5 7.5h.508c4.142 0 7.5-3.358 7.5-7.5s-3.358-7.5-7.5-7.5z"/><path d="m393.452 312.606h-.508c-4.142 0-7.5 3.358-7.5 7.5s3.358 7.5 7.5 7.5h.508c4.142 0 7.5-3.358 7.5-7.5s-3.358-7.5-7.5-7.5z"/><path d="m393.959 293.734h-.508c-4.142 0-7.5 3.358-7.5 7.5s3.358 7.5 7.5 7.5h.508c4.142 0 7.5-3.358 7.5-7.5s-3.357-7.5-7.5-7.5z"/></g></g></svg>